<svg xmlns="http://www.w3.org/2000/svg" role="img" aria-labelledby="plan-title plan-desc" viewBox="-6.9 -6.06 14.38 14.26" style="display:block;width:100%;height:auto;background:#fff;font-family:Arial,Helvetica,sans-serif"><title id="plan-title">Combstruct 125 — parter</title><desc id="plan-desc">Dom parterowy z filmu Combstruct: trzy pokoje sypialne, salon z jadalnią i kuchnią, łazienka, osobne WC i pralnia. Obrys 12,5 na 10 metrów. Taras 18,8 metra kwadratowego.</desc><metadata>{&quot;source&quot;:{&quot;path&quot;:&quot;lib/construction/125/layout.js&quot;},&quot;facts&quot;:{&quot;width&quot;:12.5,&quot;depth&quot;:10,&quot;footprintArea&quot;:125,&quot;terraceArea&quot;:18.75,&quot;roomsArea&quot;:104.62159999999999,&quot;bedrooms&quot;:3,&quot;bathrooms&quot;:1,&quot;separateWC&quot;:true,&quot;floors&quot;:1,&quot;interiorHeight&quot;:3.27}}</metadata><style>.furniture{stroke:#aeb6a7;stroke-width:.018;fill:none}.glass{stroke:#7594a0;stroke-width:.025}.door{stroke:#71846b;stroke-width:.025}.swing{fill:none;stroke:#a4b39c;stroke-width:.017;stroke-dasharray:.065 .04}.label{fill:#294235;font-size:.255px;font-weight:600;text-anchor:middle;paint-order:stroke;stroke:#fff;stroke-width:.09;stroke-linejoin:round}.area{fill:#71816a;font-size:.218px;font-weight:400}.dim{stroke:#acb6a6;stroke-width:.016;fill:#68795f}.dim text{stroke:none;font-size:.24px}</style><text x="-6.25" y="-5.52" fill="#294235" font-size=".37" font-weight="600">Parter</text><text x="6.25" y="-5.52" fill="#7b886f" font-size=".28" text-anchor="end">125 m² w obrysie</text><rect x="-6.25" y="5" width="7.5" height="2.5" fill="#f0eadf" stroke="#cdc3ae" stroke-width=".02"/><line x1="-6" y1="5" x2="-6" y2="7.5" stroke="#ded5c4" stroke-width=".014"/><line x1="-5.75" y1="5" x2="-5.75" y2="7.5" stroke="#ded5c4" stroke-width=".014"/><line x1="-5.5" y1="5" x2="-5.5" y2="7.5" stroke="#ded5c4" stroke-width=".014"/><line x1="-5.25" y1="5" x2="-5.25" y2="7.5" stroke="#ded5c4" stroke-width=".014"/><line x1="-5" y1="5" x2="-5" y2="7.5" stroke="#ded5c4" stroke-width=".014"/><line x1="-4.75" y1="5" x2="-4.75" y2="7.5" stroke="#ded5c4" stroke-width=".014"/><line x1="-4.5" y1="5" x2="-4.5" y2="7.5" stroke="#ded5c4" stroke-width=".014"/><line x1="-4.25" y1="5" x2="-4.25" y2="7.5" stroke="#ded5c4" stroke-width=".014"/><line x1="-4" y1="5" x2="-4" y2="7.5" stroke="#ded5c4" stroke-width=".014"/><line x1="-3.75" y1="5" x2="-3.75" y2="7.5" stroke="#ded5c4" stroke-width=".014"/><line x1="-3.5" y1="5" x2="-3.5" y2="7.5" stroke="#ded5c4" stroke-width=".014"/><line x1="-3.25" y1="5" x2="-3.25" y2="7.5" stroke="#ded5c4" stroke-width=".014"/><line x1="-3" y1="5" x2="-3" y2="7.5" stroke="#ded5c4" stroke-width=".014"/><line x1="-2.75" y1="5" x2="-2.75" y2="7.5" stroke="#ded5c4" stroke-width=".014"/><line x1="-2.5" y1="5" x2="-2.5" y2="7.5" stroke="#ded5c4" stroke-width=".014"/><line x1="-2.25" y1="5" x2="-2.25" y2="7.5" stroke="#ded5c4" stroke-width=".014"/><line x1="-2" y1="5" x2="-2" y2="7.5" stroke="#ded5c4" stroke-width=".014"/><line x1="-1.75" y1="5" x2="-1.75" y2="7.5" stroke="#ded5c4" stroke-width=".014"/><line x1="-1.5" y1="5" x2="-1.5" y2="7.5" stroke="#ded5c4" stroke-width=".014"/><line x1="-1.25" y1="5" x2="-1.25" y2="7.5" stroke="#ded5c4" stroke-width=".014"/><line x1="-1" y1="5" x2="-1" y2="7.5" stroke="#ded5c4" stroke-width=".014"/><line x1="-0.75" y1="5" x2="-0.75" y2="7.5" stroke="#ded5c4" stroke-width=".014"/><line x1="-0.5" y1="5" x2="-0.5" y2="7.5" stroke="#ded5c4" stroke-width=".014"/><line x1="-0.25" y1="5" x2="-0.25" y2="7.5" stroke="#ded5c4" stroke-width=".014"/><line x1="0" y1="5" x2="0" y2="7.5" stroke="#ded5c4" stroke-width=".014"/><line x1="0.25" y1="5" x2="0.25" y2="7.5" stroke="#ded5c4" stroke-width=".014"/><line x1="0.5" y1="5" x2="0.5" y2="7.5" stroke="#ded5c4" stroke-width=".014"/><line x1="0.75" y1="5" x2="0.75" y2="7.5" stroke="#ded5c4" stroke-width=".014"/><line x1="1" y1="5" x2="1" y2="7.5" stroke="#ded5c4" stroke-width=".014"/><rect x="-6.25" y="-5" width="12.5" height="10" fill="#f9f9f3"/><rect x="2.5" y="0" width="3.51" height="4.76" fill="#f6f3eb"/><rect x="2.5" y="-4.76" width="3.51" height="4.52" fill="#f6f3eb"/><rect x="-1.6667" y="-4.76" width="3.9267" height="3.27" fill="#f6f3eb"/><rect x="-1.6667" y="-1.25" width="2.26" height="2.26" fill="#eef4f2"/><rect x="-1.6667" y="1.25" width="2.26" height="1.4267" fill="#eef4f2"/><rect x="-1.6667" y="2.9167" width="3.9267" height="1.8433" fill="#f9f9f3"/><rect x="0.8333" y="-1.25" width="1.4267" height="3.9267" fill="#f9f9f3"/><rect x="-6.01" y="-4.76" width="2.4367" height="1.6033" fill="#eef4f2"/><g class="furniture"><g><title>Łóżko 160 × 200</title><rect x="3.45" y="2.35" width="1.6" height="2" rx="0.05" fill="#e6eadd"/><rect x="3.53" y="2.45" width="1.44" height="0.36" rx=".06" fill="#fff"/><line x1="3.49" y1="2.89" x2="5.01" y2="2.89" /></g><g><title>Szafa 240 × 60</title><rect x="3.3" y="0" width="2.4" height="0.6" rx="0.025" fill="#ede8dd"/><line x1="3.32" y1="0.02" x2="5.68" y2="0.58" /><line x1="5.68" y1="0.02" x2="3.32" y2="0.58" /></g><g><title>Łóżko 90 × 200</title><rect x="4.9" y="-4.45" width="0.9" height="2" rx="0.05" fill="#e6eadd"/><rect x="4.98" y="-4.35" width="0.74" height="0.36" rx=".06" fill="#fff"/><line x1="4.94" y1="-3.91" x2="5.76" y2="-3.91" /></g><g><title>Biurko 120 × 60</title><rect x="2.7" y="-4.7" width="1.2" height="0.6" rx="0.025" fill="#fff"/></g><g><title>Szafa 240 × 60</title><rect x="3.3" y="-0.84" width="2.4" height="0.6" rx="0.025" fill="#ede8dd"/><line x1="3.32" y1="-0.82" x2="5.68" y2="-0.26" /><line x1="5.68" y1="-0.82" x2="3.32" y2="-0.26" /></g><g><title>Łóżko 90 × 200</title><rect x="-1.55" y="-4" width="2" height="0.9" rx="0.05" fill="#e6eadd"/><rect x="-1.45" y="-3.92" width="0.36" height="0.74" rx=".06" fill="#fff"/><line x1="-1.01" y1="-3.96" x2="-1.01" y2="-3.14" /></g><g><title>Biurko 120 × 60</title><rect x="0.8" y="-4.7" width="1.2" height="0.6" rx="0.025" fill="#fff"/></g><g><title>Szafa 220 × 60</title><rect x="-1.715" y="-2.09" width="2.2" height="0.6" rx="0.025" fill="#ede8dd"/><line x1="-1.695" y1="-2.07" x2="0.465" y2="-1.51" /><line x1="0.465" y1="-2.07" x2="-1.695" y2="-1.51" /></g><g><title>Prysznic 120 × 90</title><rect x="-1.6667" y="-1.25" width="1.2" height="0.9" rx="0.025" fill="#fff"/><line x1="-1.6367" y1="-1.22" x2="-0.4967" y2="-0.38" /><line x1="-0.4967" y1="-1.22" x2="-1.6367" y2="-0.38" /><circle cx="-1.0667" cy="-0.8" r="0.03" /></g><g><title>Umywalka</title><rect x="-1.6667" y="-0.28" width="0.6" height="1.2" rx="0.025" fill="#fff"/><ellipse cx="-1.3667" cy="0.32" rx="0.186" ry="0.36" fill="#f5f8f5"/></g><g><title>WC</title><rect x="-0.08" y="-1.25" width="0.42" height="0.7" rx="0.025" fill="#fff"/><ellipse cx="0.13" cy="-0.9" rx="0.1302" ry="0.21" fill="#f5f8f5"/></g><g><title>WC</title><rect x="-1.6667" y="1.69" width="0.7" height="0.42" rx="0.025" fill="#fff"/><ellipse cx="-1.3167" cy="1.9" rx="0.217" ry="0.126" fill="#f5f8f5"/></g><g><title>Umywalka</title><rect x="-0.825" y="2.3217" width="0.55" height="0.35" rx="0.025" fill="#fff"/><ellipse cx="-0.55" cy="2.4967" rx="0.1705" ry="0.105" fill="#f5f8f5"/></g><g><title>Szafa wejściowa 180 × 60</title><rect x="-1.55" y="4.13" width="1.8" height="0.6" rx="0.025" fill="#ede8dd"/><line x1="-1.53" y1="4.15" x2="0.23" y2="4.71" /><line x1="0.23" y1="4.15" x2="-1.53" y2="4.71" /></g><g><title>Ławka</title><rect x="1.86" y="3.3" width="0.4" height="1.2" rx="0.09" fill="#e6eadd"/></g><g><title>Pralka + suszarka w słupku</title><rect x="-5.925" y="-4.7" width="0.65" height="0.7" rx="0.025" fill="#fff"/><ellipse cx="-5.6" cy="-4.35" rx="0.2015" ry="0.21" fill="#f5f8f5"/></g><g><title>Technika / schowek</title><rect x="-4.2283" y="-4.7" width="0.65" height="1.2" rx="0.025" fill="#ede8dd"/><line x1="-4.2083" y1="-4.68" x2="-3.5983" y2="-3.52" /><line x1="-3.5983" y1="-4.68" x2="-4.2083" y2="-3.52" /></g><g><title>Blat kuchenny</title><rect x="-6" y="-2.9" width="0.6" height="2.6" rx="0.025" fill="#ede8dd"/><rect x="-5.92" y="-2.55" width="0.44" height="0.55" rx=".035" fill="#fff"/><rect x="-5.86" y="-2.49" width="0.32" height="0.42" rx=".055" fill="#eaf0ec"/><line x1="-5.9" y1="-1.4" x2="-5.5" y2="-1.4" /></g><g><title>Wyspa 80 × 180</title><rect x="-4.1" y="-2.85" width="0.8" height="1.8" rx="0.025" fill="#ede8dd"/><rect x="-3.99" y="-2.65" width="0.58" height="0.6" rx=".025" fill="#fff"/><circle cx="-3.84" cy="-2.49" r="0.075" /><circle cx="-3.84" cy="-2.21" r="0.075" /><circle cx="-3.56" cy="-2.49" r="0.075" /><circle cx="-3.56" cy="-2.21" r="0.075" /></g><g><title>Lodówka</title><rect x="-2.675" y="-4.725" width="0.65" height="0.65" rx="0.025" fill="#ede8dd"/></g><g><title>Stół 90 × 160</title><rect x="-4.7" y="-0.05" width="0.9" height="1.6" rx="0.09" fill="#fff"/><rect x="-5.11" y="0.09" width="0.36" height="0.36" rx=".065" fill="#fff"/><rect x="-5.11" y="1.05" width="0.36" height="0.36" rx=".065" fill="#fff"/><rect x="-3.75" y="0.09" width="0.36" height="0.36" rx=".065" fill="#fff"/><rect x="-3.75" y="1.05" width="0.36" height="0.36" rx=".065" fill="#fff"/></g><g><title>Sofa 220 × 95</title><rect x="-5.955" y="2.05" width="0.95" height="2.2" rx="0.09" fill="#e6eadd"/><rect x="-5.865" y="2.17" width="0.71" height="0.6333" rx=".06" fill="#f6f7f2"/><rect x="-5.865" y="2.8367" width="0.71" height="0.6333" rx=".06" fill="#f6f7f2"/><rect x="-5.865" y="3.5033" width="0.71" height="0.6333" rx=".06" fill="#f6f7f2"/></g><g><title>Stolik</title><rect x="-4.325" y="2.55" width="0.65" height="1.1" rx="0.09" fill="#fff"/></g><g><title>TV</title><rect x="-2.22" y="1.35" width="0.24" height="1.6" rx="0.025" fill="#fff"/></g></g><rect x="-6.25" y="-5" width="12.5" height="0.24" fill="#294235"/><rect x="-6.25" y="4.76" width="12.5" height="0.24" fill="#294235"/><rect x="-6.25" y="-5" width="0.24" height="10" fill="#294235"/><rect x="6.01" y="-5" width="0.24" height="10" fill="#294235"/><rect x="-5.3987" y="-5.015" width="1.6307" height="0.27" fill="#fff"/><line x1="-5.3987" y1="-4.92" x2="-3.768" y2="-4.92" class="glass"/><line x1="-5.3987" y1="-4.84" x2="-3.768" y2="-4.84" class="glass"/><line x1="-4.5833" y1="-4.945" x2="-4.5833" y2="-4.815" class="glass"/><rect x="-2.8987" y="-5.015" width="0.7973" height="0.27" fill="#fff"/><line x1="-2.8987" y1="-4.92" x2="-2.1013" y2="-4.92" class="glass"/><line x1="-2.8987" y1="-4.84" x2="-2.1013" y2="-4.84" class="glass"/><line x1="-2.5" y1="-4.945" x2="-2.5" y2="-4.815" class="glass"/><rect x="-1.232" y="-5.015" width="2.464" height="0.27" fill="#fff"/><line x1="-1.232" y1="-4.92" x2="1.232" y2="-4.92" class="glass"/><line x1="-1.232" y1="-4.84" x2="1.232" y2="-4.84" class="glass"/><line x1="0" y1="-4.945" x2="0" y2="-4.815" class="glass"/><rect x="3.768" y="-5.015" width="1.6307" height="0.27" fill="#fff"/><line x1="3.768" y1="-4.92" x2="5.3987" y2="-4.92" class="glass"/><line x1="3.768" y1="-4.84" x2="5.3987" y2="-4.84" class="glass"/><line x1="4.5833" y1="-4.945" x2="4.5833" y2="-4.815" class="glass"/><rect x="-6.265" y="-4.1487" width="0.27" height="0.7973" fill="#fff"/><line x1="-6.17" y1="-4.1487" x2="-6.17" y2="-3.3513" class="glass"/><line x1="-6.09" y1="-4.1487" x2="-6.09" y2="-3.3513" class="glass"/><line x1="-6.195" y1="-3.75" x2="-6.065" y2="-3.75" class="glass"/><rect x="-6.265" y="-2.482" width="0.27" height="2.0473" fill="#fff"/><line x1="-6.17" y1="-2.482" x2="-6.17" y2="-0.4347" class="glass"/><line x1="-6.09" y1="-2.482" x2="-6.09" y2="-0.4347" class="glass"/><line x1="-6.195" y1="-1.4583" x2="-6.065" y2="-1.4583" class="glass"/><rect x="-6.265" y="1.268" width="0.27" height="2.464" fill="#fff"/><line x1="-6.17" y1="1.268" x2="-6.17" y2="3.732" class="glass"/><line x1="-6.09" y1="1.268" x2="-6.09" y2="3.732" class="glass"/><line x1="-6.195" y1="2.5" x2="-6.065" y2="2.5" class="glass"/><rect x="-5.3987" y="4.745" width="2.8807" height="0.27" fill="#fff"/><line x1="-5.3987" y1="4.84" x2="-2.518" y2="4.84" class="glass"/><line x1="-5.3987" y1="4.92" x2="-2.518" y2="4.92" class="glass"/><line x1="-3.9583" y1="4.815" x2="-3.9583" y2="4.945" class="glass"/><rect x="0.4347" y="4.745" width="1.214" height="0.27" fill="#fff"/><line x1="1.6487" y1="4.88" x2="1.6487" y2="3.98" class="door"/><path d="M0.7487,4.88A.9,.9 0 0 1 1.6487,3.98" class="swing"/><rect x="3.768" y="4.745" width="1.6307" height="0.27" fill="#fff"/><line x1="3.768" y1="4.84" x2="5.3987" y2="4.84" class="glass"/><line x1="3.768" y1="4.92" x2="5.3987" y2="4.92" class="glass"/><line x1="4.5833" y1="4.815" x2="4.5833" y2="4.945" class="glass"/><rect x="5.995" y="-4.1487" width="0.27" height="2.0473" fill="#fff"/><line x1="6.09" y1="-4.1487" x2="6.09" y2="-2.1013" class="glass"/><line x1="6.17" y1="-4.1487" x2="6.17" y2="-2.1013" class="glass"/><line x1="6.065" y1="-3.125" x2="6.195" y2="-3.125" class="glass"/><rect x="5.995" y="1.268" width="0.27" height="2.464" fill="#fff"/><line x1="6.09" y1="1.268" x2="6.09" y2="3.732" class="glass"/><line x1="6.17" y1="1.268" x2="6.17" y2="3.732" class="glass"/><line x1="6.065" y1="2.5" x2="6.195" y2="2.5" class="glass"/><rect x="2.26" y="-5" width="0.24" height="10" fill="#294235"/><rect x="2.248" y="1.268" width="0.264" height="1.214" fill="#fff"/><line x1="2.38" y1="1.268" x2="3.28" y2="1.268" class="door"/><path d="M2.38,2.168A0.9,0.9 0 0 1 3.28,1.268" class="swing"/><rect x="2.248" y="-1.6487" width="0.264" height="1.214" fill="#fff"/><line x1="2.38" y1="-1.6487" x2="3.28" y2="-1.6487" class="door"/><path d="M2.38,-0.7487A0.9,0.9 0 0 1 3.28,-1.6487" class="swing"/><rect x="2.5" y="-0.24" width="3.75" height="0.24" fill="#294235"/><rect x="-1.9067" y="-5" width="0.24" height="10" fill="#294235"/><rect x="-1.9187" y="2.9347" width="0.264" height="1.214" fill="#fff"/><line x1="-1.7867" y1="2.9347" x2="-2.6867" y2="2.9347" class="door"/><path d="M-1.7867,3.8347A0.9,0.9 0 0 0 -2.6867,2.9347" class="swing"/><rect x="-1.6667" y="-1.49" width="4.1667" height="0.24" fill="#294235"/><rect x="0.8513" y="-1.502" width="1.214" height="0.264" fill="#fff"/><line x1="0.8513" y1="-1.37" x2="0.8513" y2="-2.27" class="door"/><path d="M1.7513,-1.37A0.9,0.9 0 0 0 0.8513,-2.27" class="swing"/><rect x="0.5933" y="-1.25" width="0.24" height="4.1667" fill="#294235"/><rect x="0.5813" y="-0.3987" width="0.264" height="1.214" fill="#fff"/><line x1="0.7133" y1="-0.3987" x2="-0.1867" y2="-0.3987" class="door"/><path d="M0.7133,0.5013A0.9,0.9 0 0 0 -0.1867,-0.3987" class="swing"/><rect x="0.5813" y="1.268" width="0.264" height="1.214" fill="#fff"/><line x1="0.7133" y1="1.268" x2="-0.1867" y2="1.268" class="door"/><path d="M0.7133,2.168A0.9,0.9 0 0 0 -0.1867,1.268" class="swing"/><rect x="-1.6667" y="2.6767" width="2.5" height="0.24" fill="#294235"/><rect x="0.8333" y="2.6767" width="1.6667" height="0.24" fill="#294235"/><rect x="0.8513" y="2.6647" width="1.214" height="0.264" fill="#fff"/><line x1="0.8513" y1="2.7967" x2="0.8513" y2="1.8967" class="door"/><path d="M1.7513,2.7967A0.9,0.9 0 0 0 0.8513,1.8967" class="swing"/><rect x="-1.6667" y="1.01" width="2.5" height="0.24" fill="#294235"/><rect x="-3.5733" y="-5" width="0.24" height="2.0833" fill="#294235"/><rect x="-6.25" y="-3.1567" width="2.9167" height="0.24" fill="#294235"/><rect x="-5.3987" y="-3.1687" width="1.214" height="0.264" fill="#fff"/><line x1="-5.3987" y1="-3.0367" x2="-5.3987" y2="-3.9367" class="door"/><path d="M-4.4987,-3.0367A0.9,0.9 0 0 0 -5.3987,-3.9367" class="swing"/><g class="label"><text x="4.45" y="1.1" >Sypialnia 1</text><text x="4.45" y="1.39" class="area">16,7 m²</text></g><g class="label"><text x="4.45" y="-1.68" >Sypialnia 2</text><text x="4.45" y="-1.39" class="area">15,9 m²</text></g><g class="label"><text x="0.52" y="-2.73" >Sypialnia / gabinet</text><text x="0.52" y="-2.44" class="area">12,8 m²</text></g><g class="label"><text x="-0.49" y="0.27" >Łazienka</text><text x="-0.49" y="0.56" class="area">5,1 m²</text></g><g class="label"><text x="-0.5" y="1.67" >WC</text><text x="-0.5" y="1.96" class="area">3,2 m²</text></g><g class="label"><text x="0.33" y="3.57" >Wiatrołap</text><text x="0.33" y="3.86" class="area">7,2 m²</text></g><g class="label"><text x="1.49" y="0.23" >Hol</text><text x="1.49" y="0.52" class="area">5,6 m²</text></g><g class="label"><text x="-4.79" y="-3.72" >Pralnia</text><text x="-4.79" y="-3.43" class="area">3,9 m²</text></g><g class="label"><text x="-4.05" y="1.98" >Salon + jadalnia</text><text x="-3.48" y="-0.52" >Kuchnia</text><text x="-4.05" y="2.28" class="area">34,1 m² łącznie</text></g><g class="furniture"><rect x="-5.72" y="5.53" width="0.66" height="1.3" rx=".07" fill="#fff"/><rect x="-4.7" y="5.53" width="0.66" height="1.3" rx=".07" fill="#fff"/><circle cx="-3.48" cy="6.17" r="0.32" fill="#e8dfcf"/></g><text x="-1.5" y="6.08" fill="#7f745a" font-size=".29" text-anchor="middle" font-weight="600">Taras</text><text x="-1.5" y="6.45" fill="#8a7e62" font-size=".26" text-anchor="middle">18,8 m²</text><g class="dim"><line x1="-6.25" y1="7.94" x2="6.25" y2="7.94" /><line x1="-6.25" y1="7.82" x2="-6.25" y2="8.06" /><line x1="6.25" y1="7.82" x2="6.25" y2="8.06" /><text x="0" y="7.82" text-anchor="middle">12,50 m</text><line x1="6.8" y1="-5" x2="6.8" y2="5" /><line x1="6.68" y1="-5" x2="6.92" y2="-5" /><line x1="6.68" y1="5" x2="6.92" y2="5" /><text x="6.65" y="0" text-anchor="middle" transform="rotate(-90 6.65 0)">10,00 m</text></g><path d="M1.05,5.74V5.18m-.08,.12 .08,-.12 .08,.12" fill="none" stroke="#74866d" stroke-width=".025"/><text x="1.05" y="6.06" fill="#74866d" font-size=".22" text-anchor="middle">Wejście</text></svg>